<svg xmlns="http://www.w3.org/2000/svg" xmlns:xlink="http://www.w3.org/1999/xlink" width="1000" zoomAndPan="magnify" viewBox="0 0 750 749.999995" height="1000" preserveAspectRatio="xMidYMid meet" version="1.0"><defs><clipPath id="adc5e4375e"><path d="M 141 62 L 610 62 L 610 693.683594 L 141 693.683594 Z M 141 62 " clip-rule="nonzero"/></clipPath></defs><path fill="#7cd0e2" d="M 387.332031 197.824219 C 431.648438 193.855469 466.390625 150.324219 461.976562 100.695312 C 457.617188 51.019531 412.453125 18.726562 364.050781 28.382812 C 315.550781 38.046875 285.179688 81.109375 293.605469 125.082031 C 302.140625 169.050781 342.917969 201.804688 387.332031 197.824219 " fill-opacity="1" fill-rule="nonzero"/><path stroke-linecap="round" transform="matrix(0.226358, 0, 0, -0.226358, -14.222809, 839.684211)" fill="none" stroke-linejoin="round" d="M 1773.980201 2835.59505 C 1969.760252 2853.128107 2123.243529 3045.439512 2103.74318 3264.68901 C 2084.484428 3484.145591 1884.95962 3626.808763 1671.128803 3584.149593 C 1456.866563 3541.455908 1322.693808 3351.215337 1359.917041 3156.953897 C 1397.623467 2962.709714 1577.768726 2818.010222 1773.980201 2835.59505 Z M 1773.980201 2835.59505 " stroke="#231f20" stroke-width="30" stroke-opacity="1" stroke-miterlimit="10"/><path fill="#7cd0e2" d="M 483.039062 277.402344 C 519.8125 234.980469 557.464844 190.035156 595.742188 142.367188 C 610.800781 123.664062 610.191406 93.972656 593.285156 77.359375 C 576.414062 60.699219 550.214844 63.503906 535.800781 82.242188 C 498.957031 130.078125 462.683594 175.144531 427.230469 217.65625 C 425.453125 219.804688 423.9375 222.085938 422.683594 224.492188 C 397.511719 226.570312 372.335938 228.640625 347.15625 230.71875 C 345.570312 228.640625 343.742188 226.71875 341.664062 225.015625 C 300.351562 190.867188 255.636719 159.421875 207.800781 131.003906 C 188.976562 119.847656 163.257812 125.496094 151.257812 142.296875 C 139.207031 159.121094 144.96875 180.953125 163.175781 192.316406 C 209.738281 221.125 253.09375 252.902344 293.015625 287.246094 C 294.984375 288.941406 297.0625 290.382812 299.230469 291.585938 C 300.714844 293.664062 302.386719 295.539062 304.207031 297.21875 C 303.304688 341.359375 301.050781 385.269531 297.347656 428.921875 C 297.445312 433.898438 298.167969 438.726562 299.40625 443.359375 C 289.441406 498.890625 277.777344 553.5 264.515625 607.207031 C 259.378906 628.480469 270.289062 652.8125 288.789062 662.027344 C 307.285156 671.222656 327.914062 661 334.925781 638.703125 C 350.453125 588.390625 364.511719 537.113281 377.183594 484.972656 C 384.628906 485.457031 392.0625 485.960938 399.507812 486.449219 C 403.742188 540.4375 404.582031 595.046875 401.859375 649.929688 C 400.789062 674.085938 415.636719 692.195312 436.390625 690.046875 C 457.113281 687.933594 476.886719 665.492188 479.175781 640.257812 C 484.738281 577.089844 485.824219 514.070312 482.605469 451.699219 C 484.480469 446.578125 485.789062 441.105469 486.417969 435.367188 C 485.257812 385.746094 481.511719 336.425781 475.285156 287.570312 C 476.71875 285.636719 477.992188 283.511719 479.113281 281.25 C 480.476562 280.082031 481.792969 278.828125 483.039062 277.402344 " fill-opacity="1" fill-rule="nonzero"/><g clip-path="url(#adc5e4375e)"><path stroke-linecap="round" transform="matrix(0.226358, 0, 0, -0.226358, -14.222809, 839.684211)" fill="none" stroke-linejoin="round" d="M 2196.792632 2484.036548 C 2359.249521 2671.446981 2525.589222 2870.0054 2694.690035 3080.591911 C 2761.215562 3163.218168 2758.523478 3294.388214 2683.835416 3367.782005 C 2609.302667 3441.382879 2493.560331 3428.992392 2429.882201 3346.210822 C 2267.114687 3134.882263 2106.866687 2935.788878 1950.242646 2747.981536 C 1942.390736 2738.490216 1935.695041 2728.412159 1930.155561 2717.78188 C 1818.951802 2708.601185 1707.730785 2699.455004 1596.492512 2690.274309 C 1589.486192 2699.455004 1581.409941 2707.945421 1572.229246 2715.46945 C 1389.719786 2866.329671 1192.179526 3005.248085 980.850967 3130.792367 C 897.689745 3180.078204 784.070013 3155.12466 731.056675 3080.902536 C 677.818997 3006.57687 703.272992 2910.127799 783.707617 2859.927344 C 989.410412 2732.657368 1180.945255 2592.272113 1357.311242 2440.549045 C 1366.008743 2433.05953 1375.189438 2426.691717 1384.767043 2421.376578 C 1391.324682 2412.195882 1398.710655 2403.912548 1406.752392 2396.492062 C 1402.766037 2201.488573 1392.80878 2007.503244 1376.449195 1814.656874 C 1376.880618 1792.671525 1380.073153 1771.341939 1385.543605 1750.875202 C 1341.521136 1505.550459 1289.991896 1264.298355 1231.404565 1027.032606 C 1208.711681 933.051278 1256.910331 825.557762 1338.639226 784.848627 C 1420.350865 744.225776 1511.484797 789.387204 1542.461014 887.889851 C 1611.057374 1110.159314 1673.165123 1336.691243 1729.146655 1567.036957 C 1762.038394 1564.897096 1794.878362 1562.67095 1827.770101 1560.513831 C 1846.47663 1322.005582 1850.186874 1080.753478 1838.158782 838.293388 C 1833.430379 731.576435 1899.024031 651.573234 1990.710184 661.064554 C 2082.258282 670.400562 2169.612942 769.541716 2179.725513 881.021586 C 2204.299404 1160.083659 2209.096835 1438.489967 2194.877111 1714.031622 C 2203.160445 1736.655478 2208.941522 1760.832459 2211.71989 1786.182913 C 2206.594577 2005.397897 2190.045166 2223.284096 2162.537595 2439.116718 C 2168.870894 2447.658906 2174.496658 2457.046685 2179.449402 2467.038456 C 2185.472076 2472.198283 2191.287666 2477.737763 2196.792632 2484.036548 Z M 2196.792632 2484.036548 " stroke="#231f20" stroke-width="30" stroke-opacity="1" stroke-miterlimit="10"/></g><path stroke-linecap="butt" transform="matrix(0.75, 0, 0, 0.75, 503.220626, 298.7669)" fill="none" stroke-linejoin="miter" d="M -0.0025015 1.9983 L 28.185 1.9983 " stroke="#ffffff" stroke-width="4" stroke-opacity="1" stroke-miterlimit="4"/></svg>